<!-- icon666.com - MILLIONS vector ICONS FREE --><svg id="Layer_1" enable-background="new 0 0 512 512" viewBox="0 0 512 512" xmlns="http://www.w3.org/2000/svg"><g id="_x38_47_x2C__eye_x2C__deny_x2C__view"><path d="m504.472 261.27c2.002-3.229 2.002-7.312 0-10.539-80.172-129.275-230.303-178.478-360.461-120.866l-110.913-110.908c-3.907-3.906-10.235-3.906-14.142 0-3.906 3.902-3.906 10.235 0 14.138l106.045 106.044c-46.606 24.88-87.322 62.974-117.473 111.591-2.002 3.228-2.002 7.311 0 10.538 80.174 129.274 230.305 178.479 360.467 120.865l110.908 110.913c3.905 3.901 10.235 3.901 14.143 0 3.906-3.906 3.906-10.235 0-14.142l-106.045-106.045c46.611-24.879 87.322-62.973 117.471-111.589zm-476.604-5.27c29.074-44.887 67.871-79.749 111.973-102.021l45.883 45.884c-12.33 15.401-19.714 34.92-19.714 56.138 0 49.623 40.37 89.993 89.993 89.993 21.213 0 40.735-7.389 56.139-19.714l40.595 40.595c-119.895 48.909-252.094 1.464-324.869-110.875zm186.442-27.552c-5.239 7.906-8.301 17.38-8.301 27.552 0 27.564 22.424 49.994 49.994 49.994 10.172 0 19.646-3.063 27.547-8.303l14.347 14.344c-11.689 8.76-26.197 13.956-41.894 13.956-38.598 0-69.996-31.399-69.996-69.991 0-15.7 5.195-30.208 13.956-41.894zm68.754 40.478-39.987-39.994c3.916-1.875 8.301-2.93 12.926-2.93 16.539 0 29.998 13.458 29.998 29.998 0 4.624-1.056 9.009-2.937 12.926zm-14.139 14.14c-3.911 1.875-8.297 2.931-12.922 2.931-16.545 0-29.998-13.458-29.998-29.997 0-4.625 1.051-9.01 2.93-12.922zm103.236 74.955-45.883-45.883c12.33-15.402 19.713-34.921 19.713-56.139 0-5.523-4.479-9.996-10-9.996s-9.996 4.473-9.996 9.996c0 15.699-5.197 30.207-13.957 41.893l-14.348-14.342c5.245-7.906 8.307-17.374 8.307-27.551 0-27.566-22.429-49.995-49.994-49.995-10.177 0-19.645 3.062-27.551 8.302l-14.348-14.342c11.691-8.761 26.199-13.957 41.898-13.957 5.523 0 9.996-4.478 9.996-10.001 0-5.522-4.473-9.996-9.996-9.996-21.218 0-40.74 7.384-56.138 19.709l-40.595-40.594c119.861-48.896 252.076-1.494 324.869 110.875-29.08 44.887-67.877 79.748-111.977 102.021z"></path></g></svg>